/* XPM */
static char * disqus_xpm[] = {
"48 48 2 1",
" 	c None",
".	c #1E90FF",
"                  ..............                ",
"                 .................              ",
"              .......................           ",
"            ..........................          ",
"           ............................         ",
"         ................................       ",
"        .................................       ",
"        ..................................      ",
"      ......................................    ",
"      ......................................    ",
"     .......................................    ",
"     .........................................  ",
"    .............          ...................  ",
"    .............             ................. ",
"   ..............                .............. ",
"  ...............                 ............. ",
"  ...............                  ............ ",
"  ...............     .......       ............",
"  ...............     ........      ............",
"  ...............     .........     ............",
"  ...............     .........      ...........",
"  ...............     ..........     ...........",
"  ...............     ..........     ...........",
"  ...............     ..........     ...........",
"  ...............     ..........     ...........",
"  ...............     ..........     ...........",
"  ...............     .........      ...........",
"  ...............     .........     ............",
"  ...............     ........      ............",
"  ...............     .......      .............",
"  ...............                  ............ ",
"  ...............                 ............. ",
"   ..............                .............. ",
"   ..............             ................. ",
"   ..............          ...................  ",
"  ............................................  ",
"  ..........................................    ",
"  ..........................................    ",
"  ..........................................    ",
" .........................................      ",
".........................................       ",
".........................................       ",
"....       ............................         ",
"            ..........................          ",
"              .......................           ",
"                 .................              ",
"                  ..............                ",
"                                                "};
