/* XPM */
static char * face10_xpm[] = {
"48 48 8 1",
" 	c None",
".	c #000080",
"+	c #FF0000",
"@	c #B22222",
"#	c #2E8B57",
"$	c #32CD32",
"%	c #FFA500",
"&	c #FFD700",
"                                                ",
"                                                ",
"                                                ",
"                                                ",
"                                                ",
"                                                ",
"                                                ",
"                                                ",
"                                                ",
"                                                ",
"                                                ",
"                                                ",
"                                                ",
"                              $$$$$$      $$$$$ ",
"                 ....          $$$$$      $$$$$ ",
"                 ....     &&&&&&##$$$     $$$$  ",
"                 ....    &&&&&&&###$$    $$$$$  ",
"                 ....    &&&&  &###$$$  $$$$$   ",
"                 ....    &&&&  &&##$$$  $$$$$   ",
"                 ....          &&&#$$$$ $$$$    ",
"   ++++++++++++++.........&&&&&&&&#$$$$$$$$     ",
"  +++++++++++++++@.......%&&&&&&&&#$$$$$$$$     ",
" ++++++     +++++@@..  ..%%&&  &&&&$$$$$$$$     ",
"+++++++      ++++@@..  ..%%&   &&&& $$$$$$      ",
"+++++++++++++++++@@@.   .%%&   &&&& $$$$$$      ",
"+++++++++++++++++@@@.   .%%&&  &&&& $$$$$       ",
"+++++++          ....   .%%&&&&&&&& $$$$$       ",
"+++++++     +++++@@@.   ..%&&&&&&&& $$$$$       ",
" ++++++     +++++@@..   ...&&& &&&& $$$$$       ",
" ++++++++ +++++++@...  ....         $$$$$       ",
"  +++++++++++++++....  ....         $$$$$       ",
"      ++++++++   ..........         $$$$$       ",
"                 ... .....                      ",
"                                                ",
"                                                ",
"                                                ",
"                                                ",
"                                                ",
"                                                ",
"                                                ",
"                                                ",
"                                                ",
"                                                ",
"                                                ",
"                                                ",
"                                                ",
"                                                ",
"                                                "};
