/* XPM */
static char * etsy_xpm[] = {
"48 48 2 1",
" 	c #FFA500",
".	c #FFFFFF",
"                                                ",
"                                                ",
"                                                ",
"                                                ",
"                                                ",
"                                                ",
"                                                ",
"                                                ",
"                                                ",
"             .               ......             ",
"            .......................             ",
"              .....................             ",
"               .....            ...             ",
"                ....             ..             ",
"                ....             ..             ",
"                ....             ..             ",
"                ....                            ",
"                ....                            ",
"                ....                            ",
"                ....          ..                ",
"                ....          ..                ",
"                ....          ..                ",
"                ................                ",
"                ................                ",
"                ....        ....                ",
"                ....          ..                ",
"                ....          ..                ",
"                ....           .                ",
"                ....                            ",
"                ....                            ",
"                ....                            ",
"                ....               .            ",
"                ....              ...           ",
"                ....              ..            ",
"                ....              ..            ",
"               .....            ....            ",
"               .......       .......            ",
"            ........................            ",
"            ........................            ",
"                                                ",
"                                                ",
"                                                ",
"                                                ",
"                                                ",
"                                                ",
"                                                ",
"                                                ",
"                                                "};
