/* XPM */
static char * everbridge_com_xpm[] = {
"48 48 4 1",
" 	c None",
".	c #FF0000",
"+	c #545454",
"@	c #FFA500",
"                                                ",
"                                                ",
"                                                ",
"                                                ",
"                                                ",
"                                                ",
"                                                ",
"                 @@    ..    ++                 ",
"                 @@   ...    ++                 ",
"                 @@   ...    +++                ",
"                @@@   ...   ++++                ",
"                @@@   ...   ++++                ",
"                @@@@  ....  ++++                ",
"               @@@@@  ....  +++++               ",
"               @@ @@ .. ..  ++ ++               ",
"              @@@ @@ .. ...+++ +++              ",
"              @@  @@@..  ..++   ++              ",
"             @@@   @..   ..++   +++             ",
"            @@@    ...    +++    +++            ",
"           @@@     ..@    ++.     +++           ",
"          @@@     ...@    ++..     +++          ",
"         @@@     ...@@@  ++ ..      ++++        ",
"       @@@@      ..  @@ +++ ...      ++++       ",
"     @@@@@      ...   @@++   ...       +++++    ",
"  @@@@@@       ...    @+++    ...        +++++++",
"@@@@@@        ...     +++@     ....        +++++",
"@@@         ....      ++@@@     ....            ",
"           ....      ++  @@       ....          ",
"         ....       +++  @@@       .....        ",
"       .....       +++    @@@        .....      ",
"     .....        +++      @@@@        ......   ",
" .......        ++++        @@@@         .......",
"......         +++            @@@            ...",
"..           ++++              @@@@             ",
"            ++++                 @@@@           ",
"         +++++                    @@@@@         ",
"       +++++                        @@@@@@      ",
"   +++++++                             @@@@@@@@@",
"+++++++                                   @@@@@@",
"++++                                          @@",
"                                                ",
"                                                ",
"                                                ",
"                                                ",
"                                                ",
"                                                ",
"                                                ",
"                                                "};
