/* XPM */
static char * firefox_com_xpm[] = {
"48 48 11 1",
" 	c None",
".	c #0000FF",
"+	c #00FFFF",
"@	c #006633",
"#	c #FFCC99",
"$	c #FF9900",
"%	c #FFFF00",
"&	c #000000",
"*	c #999999",
"=	c #663333",
"-	c #FF0000",
"                                                ",
"                                                ",
"                  ..+..+..+..                   ",
"              .@@.@@.++.++.++.++.               ",
"              .@@.@@.++.++.++.++.               ",
"           @..@..@..@..+..+..+..+..+  #         ",
"         @@.@@.@@.@@.+++++.++.++.++.$$###       ",
"         @@.@@.@@.@@.+++++.++.++.++.$######     ",
"   ##$##@..@..@..$##@..++++..+..+..@##%$$###    ",
"   $$$$$.@@.@@$$$$&&.++.+++++.++.@@.*#%%%$$##   ",
"   $$$$$.@@.@@$$$$&&.++.+++++.++.@@.*#%%%$$$#   ",
"   $$$$$$#####$$$=..+..+++++++..@..@..#%%%$$##  ",
"   ==$$$$$$$$$$$$$&&.++.+++++.++.++.&&*#%%%%$#  ",
"   ==$$$$$$$$$$$$$&&.++.+++++.++.++.&&*##%%%$#  ",
"   $$$$$$$$$$$$$$=--$==+..++++..+..+..&$$#%%$## ",
"  *$$$$$$$$$$$$$$-$$$$$*++.++.@@.++.++.$$#%%%## ",
"  *$$$$$$$$$$$$$$-$$$$$*++.++.@@.++.++.$$#%%%## ",
"  $$$$$$$$$$$$$$$#$$%***..+..@..@..+..@##%%%%## ",
"  $$$$$$$$$$$$$$$$##***.++.@@.&&.++.@@.##%%%%## ",
" $$$$$$$$$$$$$$$$$##***.++.@@.&&.++.@@.##%%%%%##",
" $$$$$$$$$$$$$$$$#**@..+..+..&..@..@..&##%%%%%##",
" $$$$$$$$$$$$$$==$@@*@@.++.@@.&&.@@.&&.#%%%%%%##",
"$$$$$$$$$$$$$$$==$@@*@@.++.@@.&&.@@.&&.#%%%%%%##",
"$$$$$$$$$$$=--=&&@**@..+..+..@..&..&..=#%%%%%## ",
"$$$$$$$$$==-==-==.&&.++.++.++.&&.&&.&&$#%%%%%## ",
" $$$$$$$$==-==-==.&&.++.++.++.&&.&&.&&$#%%%%%## ",
" $$$$$$$$--=--$$$=..@..+$$+..@..&..&..##%%%%%## ",
" $$$$$$$$$$$$$$$$$$$$$$$$$$$$.&&.&&.&&##%%%%### ",
"  $$$$$$$$$$$$$$$$$$$$$$$$$$$.&&.&&.&&##%%%%##  ",
"  ---$$$$$$$$$$$$=$$$$$$=====&..&..=$$##%%%%##  ",
"  =--$$$$$$$$$$$$=========.&&.&&.&&=$$#%%%%%##  ",
"  =--$$$$$$$$$$$$=========.&&.&&.&&=$$#%%%%###  ",
"   ---$$$$$$$$$$$=..&..&..&..&..&==$###%%%%##   ",
"   --$--$$$$$$$$$$$$.&&.&&.&&.===$$$$$#%%%%##   ",
"   --$--$$$$$$$$$$$$.&&.&&.&&.===$$$$$#%%%###   ",
"     -$$-$$$$$$$$$$$$=========$$$$$$##$%%%###   ",
"     =--$--$$$$$$$$$$$$$$$$$$$$$$$$$$$#%%###    ",
"     =--$--$$$$$$$$$$$$$$$$$$$$$$$$$$$%%###     ",
"      ---$$-$$$$$$$$$$$$$$$$$$$$$$$$##%%##      ",
"        ---$--$--$$$$$$$$$$$$$$$$$$#%%%##       ",
"        ---$--$--$$$$$$$$$$$$$$$$$$#%%###       ",
"         ------$$-$$-$$-$$-$$$$$$$$$###         ",
"           =-----$--$--$--$---==$$$$            ",
"           =-----$--$--$--$---==$$$$            ",
"              =--------------=--$               ",
"                  =========**                   ",
"                  =========**                   ",
"                                                "};
