/* XPM */
static char * firefox_com_new_xpm[] = {
"48 48 23 1",
" 	c None",
".	c #000080",
"+	c #1E90FF",
"@	c #708090",
"#	c #20B2AA",
"$	c #87CEEB",
"%	c #2F4F4F",
"&	c #000000",
"*	c #E6E6FA",
"=	c #8B864E",
"-	c #FFD700",
";	c #CD853F",
">	c #FFA500",
",	c #BEBEBE",
"'	c #D2B48C",
")	c #FF6347",
"!	c #A0522D",
"~	c #FFFF00",
"{	c #B22222",
"]	c #FF0000",
"^	c #FFFACD",
"/	c #F5DEB3",
"(	c #98FB98",
"                                                ",
"                   .+.+@+@.+.                   ",
"               ..@+@#@$$@$@@+@+.                ",
"             .%+@$$$$$$$$$$$$$%+@..             ",
"            +@+#$$$$$$$$$$$$$@$@+&+.            ",
"          .+@+$$$$$$$$$*$$$$$$==-;==&.          ",
"     ;   +%+#$$$$$$@$$$*$$$$@$@$@==-->=         ",
"    >>  .%+%+$$$$@$,$$$$$$$$$$@@@==;>->>        ",
"    ;;; @++%$$$@=;'@$$$$$$$$$$@@;->-;-->        ",
"   )>)>)=='='=>>;=@$$$$@$+$$$$$$%+&%!~~--> >    ",
"   {]);;;;;;;)>;;%@@$$$$@$$$$$$+@%+&&=--~-;-    ",
"   {>;>;)>;>;>)>!@+$$+$$$$+$$+$$+@.&.&%----;-   ",
"   !];)>>)>)>)>;!%@$$#+$$$$$$$$@$$+&+@&=---;-   ",
"   {>;>)>;)>{>)>{{%@@@$@+$+$+@+$+@+@+@+%>->>^;  ",
"  {;]{>>)>)>;>)>{{{)){=%$#+#+$@+$$+@+@+@>>>>~;  ",
"  >;>>));>)>];>>{{]>]>!@$+@$+@+%+%+@+@+%;>>>~-  ",
" >{>);>>]>;>)>)>>!;;;;@%$@+%+%+%+%@+@+@+;;-;~-  ",
" ;)>;>];>!];>{>{>!'/'%%%+@+%+%+%+&+@+%+%->--~-  ",
" >{>)>;>>>>)>)>>;>)@&%+%@+%+%+%.%+%+@++%/>/~--; ",
";);>>{>]);>)>;>);>!%%+%++@+%.%.%+&+%+%.&~>-(--; ",
"{>{>)>;>>];>)>;>;;=%+@+@@+%+&+%.%.%+@++%~-/--->;",
";];>)>))>;>)>;;>;>'@+%+@@+@+%.%&+&&+%.%+---^->>!",
"!]{>;>>>;];>{{{!%@=%+@+%@+%++&+&.&.&.&.%---(->-!",
";{>)>);]>;{{{{{&&%.%+%++++@+%.&+&+&&+&@%>-~~>>>=",
"{{>>)>;>>{{{!{{%@.%+%+%++++%+%.&+&&&.%'>>--~>;- ",
"{{{)>;]>>{!]!])!%+.%++%+@%++++&&.&.&.@;->-----; ",
"!{>>)>;>>{]!]!>);%@+.%+!;'=%%.&&.&.&&@'->---;(; ",
"{{{>;]>{>!]>{]>)>;;==!;;;;''%.&.&&.&.@-(>-----; ",
" {]>;>;>>{]{]>];)>);)>;>>>;-%&&.&.&&.%-^>->-^(! ",
" {]!]>;>>>>;]{>]!)>)>)>){!!&&&&&&&.%@=-~>;>-/-  ",
" {{{>>)>)>{]>]>>{{{!{{{{!&&&.&.&&.&!.>~~>--(-;  ",
"  {{{>;>)>>;>!]>>!{{{!{!&&&&&&.&&.;;%>--;/-(-!  ",
"  {{>];>>{>]>];>)>!&!&&&.&.&.&&&.=>!>---^~~~-   ",
"  {{{>];>>!>;>)>;>;!&&&..&.&&.&&!!>;>;->^~~~;   ",
"   {{>{>;]>)>]>{>)>;!@.&+..&.&&!;>)>>>>;-~~-    ",
"   !{];];>)>;>)>>);>;;;%.%..%!!>;>;>;>>-~-~>    ",
"    {{{{>;>;]>;>{>>)>;>);;;;;)>)>)>)>;-~~--     ",
"     {{]]>;>!>]>>)>)>)>;)>;>)>!>)>{>)-~~--;     ",
"     !{{{{>;]{;>{>>{>)>);)>;;>)>;]>]-~~~-;      ",
"       {]{{]{;{]{];>!]!>>;>)>;>)>>>--~-;;       ",
"        {{{]{]!{{]{];)>){];];]>;>-;----;        ",
"        {{{{{{]{{{]{{]{{{>{>{>;>;>--;>;!        ",
"         !{{{{{]{{]{{{]{{]!]{>{>;>;>>!          ",
"           {{{]{{{{{]{{{{]!{>];>>>;>!           ",
"            !!{{{]{{{]{]{{]!]!]{>;!             ",
"               {{{{]{{{{]{{{>{>!!               ",
"                  !!{{]{!]!{!                   ",
"                                                "};
