/* XPM */
static char * face_xpm[] = {
"48 48 3 1",
" 	c None",
".	c #171515",
"$	c #FFFFFF",
"                                                ",
"                   ..........                   ",
"                ................                ",
"             ......................             ",
"           ..........................           ",
"          ............................          ",
"         ..............................         ",
"        ................................        ",
"       ..................................       ",
"      ....................................      ",
"     ......................................     ",
"    .......$$$$..................$$$$.......    ",
"    .......$$$$$$.....$$$$.....$$$$$$.......    ",
"   ........$$$$$$$$$$$$$$$$$$$$$$$$$$........   ",
"  .........$$$$$$$$$$$$$$$$$$$$$$$$$$.........  ",
"  .........$$$$$$$$$$$$$$$$$$$$$$$$$$.........  ",
" ..........$$$$$$$$$$$$$$$$$$$$$$$$$$.......... ",
" ..........$$$$$$$$$$$$$$$$$$$$$$$$$$.......... ",
" .........$$$$$$$$$$$$$$$$$$$$$$$$$$$$......... ",
" .........$$$$$$$$$$$$$$$$$$$$$$$$$$$$$........ ",
".........$$$$$$$$$$$$$$$$$$$$$$$$$$$$$$.........",
".........$$$$$$$$$$$$$$$$$$$$$$$$$$$$$$.........",
".........$$$$$$$$$$$$$$$$$$$$$$$$$$$$$$.........",
".........$$$$$$$$$$$$$$$$$$$$$$$$$$$$$$.........",
".........$$$$$$$$$$$$$$$$$$$$$$$$$$$$$$.........",
".........$$$$$$$$$$$$$$$$$$$$$$$$$$$$$$.........",
".........$$$$$$$$$$$$$$$$$$$$$$$$$$$$$$.........",
".........$$$$$$$$$$$$$$$$$$$$$$$$$$$$$$.........",
"..........$$$$$$$$$$$$$$$$$$$$$$$$$$$$$.........",
" .........$$$$$$$$$$$$$$$$$$$$$$$$$$$$......... ",
" ..........$$$$$$$$$$$$$$$$$$$$$$$$$$$......... ",
" ..........$$$$$$$$$$$$$$$$$$$$$$$$$$.......... ",
" ...........$$$$$$$$$$$$$$$$$$$$$$$$........... ",
"  ............$$$$$$$$$$$$$$$$$$$$............  ",
"  .....$$$.......$$$$$$$$$$$$$$...............  ",
"   .....$$$........$$$$$$$$$$................   ",
"   ......$$........$$$$$$$$$$$...............   ",
"    .....$$$......$$$$$$$$$$$$..............    ",
"     .....$$$$...$$$$$$$$$$$$$.............     ",
"      .....$$$$.$$$$$$$$$$$$$$............      ",
"       .....$$$$$$$$$$$$$$$$$$...........       ",
"        ......$$$.$$$$$$$$$$$$..........        ",
"         .........$$$$$$$$$$$$.........         ",
"          ........$$$$$$$$$$$$........          ",
"           .......$$$$$$$$$$$$.......           ",
"             .....$$$$$$$$$$$$.....             ",
"               ...$$$$$$$$$$$$...               ",
"                                                "};
