/* XPM */
static char * face4_xpm[] = {
"48 48 12 1",
" 	c None",
".	c #2E8B57",
"+	c #1E90FF",
"@	c #FF6347",
"#	c #CD853F",
"$	c #32CD32",
"%	c #FFA500",
"&	c #87CEEB",
"*	c #FFD700",
"=	c #DCDCDC",
"-	c #F5DEB3",
";	c #FFFFFF",
"                                                ",
"                                                ",
"                                                ",
"                                                ",
"                                                ",
"                                                ",
"                                                ",
"                                                ",
"                                                ",
"                                                ",
"                                                ",
"                                                ",
"                                                ",
"                                                ",
"                                                ",
"    ++++++++                                    ",
"   ++       +++                                 ",
"  ++         +                                  ",
" ++                                      &&   $.",
" +                                       ++   $.",
"++                                            $.",
"++                                            $.",
"++                 @--------@     ***    &+   $.",
"++                 @@;;;;;;@@        *   &+   $.",
"++                 @;@;;;;@;@        **  &+   $.",
"++         +++++   @;;@;;@;;@     *****  &+   $.",
"+++          ++    @;;-@@-;;@    *%  %*  &+   $.",
" +++         ++    @;-;;;;-;@   *%    *  &+   $.",
"  +++        ++    @-;;;;;;-@   *%   **  &+   $.",
"   +++       ++    @;;;;;;;;@   **   **  &+   $.",
"    ++++++++++     #========#    ***% *  &+   $.",
"      ++++++                                    ",
"                                                ",
"                                                ",
"                                                ",
"                                                ",
"                                                ",
"                                                ",
"                                                ",
"                                                ",
"                                                ",
"                                                ",
"                                                ",
"                                                ",
"                                                ",
"                                                ",
"                                                ",
"                                                "};
