/* XPM */
static char * goodreads_com_xpm[] = {
"48 48 2 1",
" 	c #6C3D0D",
".	c #ECEAD6",
"................................................",
"................................................",
"................................................",
"................................................",
"................................................",
"................................................",
"....................        ....................",
"..................            ..    ............",
"................               .    ............",
"...............       ....          ............",
"..............      ........        ............",
"..............     ..........       ............",
".............     ............      ............",
".............    ..............     ............",
".............    ..............     ............",
".............    ..............     ............",
"............    ................    ............",
"............    ................    ............",
"............    ................    ............",
"............    ................    ............",
"............    ................    ............",
"............    ................    ............",
".............    ..............     ............",
".............    ..............     ............",
".............    ..............     ............",
".............     ............      ............",
"..............     ..........       ............",
"...............     ........        ............",
"...............       ....     .    ............",
"................              ..    ............",
"..................           ...    ............",
"....................       .....    ............",
"................................    ............",
"...............................    .............",
".............    ..............    .............",
".............     .............    .............",
"..............    ............     .............",
"..............     ..........     ..............",
"...............      ......       ..............",
"................                 ...............",
".................              .................",
"...................          ...................",
"................................................",
"................................................",
"................................................",
"................................................",
"................................................",
"................................................"};
