/* XPM */
static char * face1_xpm[] = {
"48 48 9 1",
" 	c #000000",
".	c #0000FF",
"+	c #0B0BEF",
"@	c #FF0000",
"#	c #F62200",
"$	c #00FF00",
"%	c #FFD700",
"&	c #DCDCDC",
"*	c #FFFFFF",
"************************************************",
"************************************************",
"************************************************",
"************************************************",
"************************************************",
"************************************************",
"***....*+************************$$$**********..",
"*...***++*************************$$**********..",
"*..*****+*************************$$**********..",
"...*********@@@@****%%%****......*$$***@@@@***..",
"..*********@@**@@**%%*%%%*..**..**$$**@@**@@**.*",
"..***.....@@@**@@*%%***%%*..**..**$$**@@@@@@****",
"...***...*@@@**@@*%%***%%**....***$$**@@********",
"*..***...**@@**@@*%%%*%%%*..******$$**@@@**#**..",
"**.......***@@@@***%%%%%**......*$$$$**@@@@***..",
"**************************......****************",
"**************************.****.****************",
"***************************....*****************",
"************************************************",
"************************************************",
"************************************************",
"************************************************",
"************************************************",
"************************************************",
"*                                              *",
"* &&&&&&&&&&&&&&&&&&&&&&&&&&&&&&&&&&&&&&&&&&&& *",
"* &&&&&&&&&&&&&&&&&&&&&&&&&&&&&&&&&&&&&&&&&&&& *",
"* &&&&&&&&&&&&&&&&&&&&&&&&&&&&&&&&&&&&&&&&&&&& *",
"* &&&&&&&&&&&&&&&&&&&&&&&&&&&&&&&&&&&&&&&&&&&& *",
"*                                              *",
"************************************************",
"************************************************",
"************************************************",
"********%%%%************************************",
"*******%%%%%%***********************************",
"******%%%**%%*%%%%**%%%**%%*%%*%%%%***%%%*******",
"******%%******%%%%*%%%%%*%%*%%*%%%%%*%%%%%******",
"******%%**%%%*%%***%%*%%*%%*%%*%%*%%*%%*%%******",
"******%%**%%%*%%***%%*%%*%%*%%*%%*%%**%%%*******",
"******%%%**%%*%%***%%*%%*%%*%%*%%*%%*%%*%%******",
"*******%%%%%%*%%***%%%%%*%%%%%*%%%%%*%%%%%******",
"********%%%%%*%%****%%%***%%%%*%%%%***%%%*******",
"*******************************%%***************",
"*******************************%%***************",
"*******************************%%***************",
"************************************************",
"************************************************",
"************************************************"};
