/* XPM */
static char * linkedin_com_xpm[] = {
"48 48 6 1",
" 	c None",
".	c #000000",
"+	c #454545",
"@	c #008AFF",
"#	c #1E90FF",
"$	c #FFFFFF",
"                                                ",
"                                                ",
"                                                ",
"                                                ",
"                                                ",
"                                                ",
"                                                ",
"     ..     ..        ..                 ..     ",
"     ..     ..        ..                 ..     ",
"     ..               ..  ..  ...     .. ..     ",
"     ..     .. . ...  .. ... .....   ......     ",
"     ..     .. ...... .....  ..  .. ..  ...     ",
"     ..     .. ..  .. ....  ....... ..   ..     ",
"     ..     .. ..  .. ..... ....... ..   ..     ",
"     ..     .. ..  .. .. ... ..     ..  ...     ",
"     ...... .. ..  .. ..  .. .....  .......     ",
"     ...... .. ..  .. ..  ..   ...   .... .     ",
"                                                ",
"                                                ",
"              +++++++++++++++++++++             ",
"             ++###################++            ",
"             +#####################+            ",
"             +#####################+            ",
"             +#####################+            ",
"             +####$$###############+            ",
"             +###$$$$##############+            ",
"             +####$$###############+            ",
"             +#####################+            ",
"             +####$$###$$#$$$$#####+            ",
"             +###$$$$#$$$$$$$$$####+            ",
"             +###$$$$#$$$$$$$$$$###+            ",
"             +###$$$$#$$$$##$$$$###+            ",
"             +###$$$$#$$$$##$$$$###+            ",
"             +###$$$$#$$$$##$$$$###+            ",
"             +###$$$$#$$$$##$$$$###+            ",
"             +###$$$$#$$$$##$$$$###+            ",
"             +###$$$$#$$$$##$$$$###+            ",
"             +#####################+            ",
"             +#####################+            ",
"             +#####################+            ",
"             ++###################++            ",
"              +++++++++++++++++++++             ",
"                                                ",
"                                                ",
"                                                ",
"                                                ",
"                                                ",
"                                                "};
