/* XPM */
static char * face_xpm[] = {
"48 48 2 1",
" 	c blue",
".	s None	c None",
"            ...                                 ",
".          ...                                  ",
"..        ...                                  .",
"...      ...                                  ..",
"....    ...                                  ...",
"....    ..                                  ....",
"....    ..  ............................    ....",
"....    .  .............................    ....",
"....    . ..............................    ....",
"....    .....     .          .     .....    ....",
"....    ..... ...    ......    ... .....    ....",
"....    ..... ..  ..  ....  ..  .. .....    ....",
"....    .....    ....  ..  ....    .....    ....",
"....    ......  ......    ......  ......    ....",
"....    ......  ......    ......  ......    ....",
"....    .....    ....  ..  ....    .....    ....",
"....    ..... ..  ..  ....  ..  .. .....    ....",
"....    ..... ...    ......    ... .....    ....",
"....    ..... ...   ........   ... .....    ....",
"....    ..... ...    ......    ... .....    ....",
"....    ..... ..  ..  ....  ..  .. .....    ....",
"....    .....    ....  ..  ....    .....    ....",
"....    ......  ......    ......  ......    ....",
"....    ...... ........  ........ ......    ....",
"....    ...... ........  ........ ......    ....",
"....    ......  ......    ......  ......    ....",
"....    ......   ....  ..  ....   ......    ....",
"....    .....  .  ..  ....  ..  .  .....    ....",
"....    ..... ...    ......    ... .....    ....",
"....    ..... ...   ........   ... .....    ....",
"....    ..... ...    ......    ... .....    ....",
"....    ..... ..  ..  ....  ..  .. .....    ....",
"....    .....    ....  ..  ....    .....    ....",
"....    ......  ......    ......  ......    ....",
"....    ......  ......    ......  ......    ....",
"....    ......   ....  ..  ....   ......    ....",
"....    .....  .  ..  ....  ..  .  .....    ....",
"....    ..... ...    ......    ... .....    ....",
"....    .....                      .....    ....",
"....    .............................. .    ....",
"....    .............................  .    ....",
"....    ............................  ..    ....",
"....                                  ..    ....",
"...                                  ...    ....",
"..                                  ...      ...",
".                                  ...        ..",
"                                  ...          .",
"                                 ...            "};
