/* XPM */
static char * mozilla_org_xpm[] = {
"48 48 4 1",
" 	c #FF0000",
".	c #FFA500",
"+	c #000000",
"@	c #FFFFFF",
"                       ..                       ",
" +++              +  + ..     +             + + ",
" +  +++ +++ +++   +  + ..+++  + + ++ ++ ++ ++ + ",
" ++ + + + + + +  +++ +++.+ +  + +  +  + ++ ++ + ",
" +  +   +++ +++   +  +.+.+++  + + +  ++ +  ++ + ",
" +  +   +   +     +  +.+.+    + + +  ++ +  ++ + ",
" +  +   +++ +++   +  +.+.+++  + + ++ ++ +  ++   ",
"                     ......                   + ",
"                    ........                    ",
"                    ........ ++++               ",
"                    ...++++++   +++             ",
"                   ...+ ++        ++            ",
"                   ...+++ ++  ++   +++          ",
"    .................++++@+    ++  ++++.....    ",
"     ..............+++ + +  ++     +++++...     ",
"      ...........++       + +++    +++.++.      ",
"       ........++        +         ++++..       ",
"         ......++       ++      +  + +++        ",
"          .....+      ++@++     +    ++         ",
"           ....+    ++@++++    ++   ++ +        ",
"             ..+++++@+++ +      +   +++         ",
"              ..+++++        + +   +++ +        ",
"               .+++  ++++++++      ++++         ",
"               ....+++...+++       +++          ",
"               ...........+++     ++++          ",
"               ............+       +++          ",
"              .............+++      +++         ",
"              .............++       ++++        ",
"              ..............++        +++       ",
"              .........  ...+ +       +++       ",
"             .........    .+++         +++      ",
"             ........      +++ +       ++++     ",
"+   +  +++   ......        ++++         +++     ",
"++  +  +++   .....     +++++ + +          +++   ",
"++  +  +++  .....      +  +  ++          + +++  ",
"++  ++ +++  ....       +++++++     +      + ++  ",
"++  ++ +++  ..          ++ ++++    +        +++ ",
"++  ++ +++ ..          ++++ ++     +++       ++ ",
"++  ++ +++ .           +++  + +       ++++   ++ ",
"++ +++ +++             + +  +++++    +++++++++++",
"++ +++ +++             +++++++++++++++++++++++++",
"++ +++ +++                ++++++++++++++++++++++",
"++ +++ +++                ++++++++++++++++++++++",
"++ +++++++    +     +    +++++++++++++++++++++++",
"++ +++++++  ++++  +++  +++++++++++++++++++++++++",
"++ +++++++ ++++++++++ ++++++++++++++++++++++++++",
"++++++++++++++++++++++++++++++++++++++++++++++++",
"++++++++++++++++++++++++++++++++++++++++++++++++"};
