/* XPM */
static char * npr_org_xpm[] = {
"48 48 5 1",
" 	c None",
".	c #FF0000",
"+	c #000000",
"@	c #0000FF",
"#	c #FFFFFF",
"                                                ",
"                                                ",
"                                                ",
"                                                ",
"                                                ",
"                                                ",
"                                                ",
"                                                ",
"                                                ",
"                                                ",
"                                                ",
"                                                ",
"                                                ",
"                                                ",
"                                                ",
"................++++++++++++++++@@@@@@@@@@@@@@@@",
"................++++++++++++++++@@@@@@@@@@@@@@@@",
"................++++++++++++++++@@@@@@@@@@@@@@@@",
"....######......++++######++++++@@@@###@@@###@@@",
"....######......++++######++++++@@@@###@@@###@@@",
"....######......++++######++++++@@@@###@@@###@@@",
"....###...###...++++###+++###+++@@@@######@@@@@@",
"....###...###...++++###+++###+++@@@@######@@@@@@",
"....###...###...++++###+++###+++@@@@######@@@@@@",
"....###...###...++++######++++++@@@@###@@@@@@@@@",
"....###...###...++++######++++++@@@@###@@@@@@@@@",
"....###...###...++++######++++++@@@@###@@@@@@@@@",
"....###...###...++++###+++++++++@@@@###@@@@@@@@@",
"....###...###...++++###+++++++++@@@@###@@@@@@@@@",
"....###...###...++++###+++++++++@@@@###@@@@@@@@@",
"................++++++++++++++++@@@@@@@@@@@@@@@@",
"................++++++++++++++++@@@@@@@@@@@@@@@@",
"................++++++++++++++++@@@@@@@@@@@@@@@@",
"                                                ",
"                                                ",
"                                                ",
"                                                ",
"                                                ",
"                                                ",
"                                                ",
"                                                ",
"                                                ",
"                                                ",
"                                                ",
"                                                ",
"                                                ",
"                                                ",
"                                                "};
