/* XPM */
static char * face7_xpm[] = {
"48 48 3 1",
" 	c None",
".	c #000080",
"+	c #FFFFFF",
"                                                ",
"                      .....                     ",
"                 ......+++.....                 ",
"              ....++++++++++++....              ",
"           ....++++++++++++++++++....           ",
"          ...+++++++++.....+++++++++..          ",
"         ..++++++..............++++++..         ",
"        ..++++++................++++++..        ",
"       ..+++++.....+++++++++++....+++++...      ",
"      ..++++...  .+++++++++++++.....+++++..     ",
"     ..++++..   .+++.......+++++.....+++++..    ",
"     .++++..    ......++++....+++.....+++++.    ",
"    ..+++..          .+++..+++.++++. ..+++..    ",
"    .+++..           .+++.++++..+++.  ..+..     ",
"   ..+++.            .+++.++++. .++..  ...      ",
"   .+++..            .++..++++. .+++.           ",
"   .++..             .++.++++.. .+++.           ",
"  ..++.              .++.++++.  .+++.           ",
"  .+++.             ..++.++++. .++++.     ..    ",
"  .++..             .+++.++++...+++..    .+.    ",
"  .++.              .+++.+++...++++..    .+..   ",
"  .++.              .+++.+++..++++..     .++.   ",
"  .++.           ....+++.++++++++..      .++.   ",
"  .++.         ...+++++..++++++...       .++.   ",
"  .++.        ..+++++++..++++...         .++.   ",
"  .++.       ..++++++++.+++...           .++.   ",
"  .++.      ..+++.++++..++..             .++.   ",
"  .++.     ..+++..++++..++.              .++.   ",
"  .++.    ..+++...++++.+++.              .++.   ",
"  .++..   .++++. .++++.+++.              .++.   ",
"  ..++.   .++++. .+++..+++.             ..++.   ",
"   .++.   .+++.. .+++..++..             .++..   ",
"   .++..  .+++.  .+++..++.             ..++.    ",
"   ..++.. ..++.  .++...++.            ..+++.    ",
"    .+++.. .+++. .++.. .+.            .+++..    ",
"    ..+++. .++++..++.. ...           ..+++.     ",
"     ..+++...++++.....              ..+++..     ",
"      ..+++...+++++...........     ..+++..      ",
"       ..+++...++++++++++++++.   ...+++..       ",
"        ..+++....+++++++++++.   ...+++..        ",
"         ..++++......+++++.......++++..         ",
"          ..++++...............+++++..          ",
"           ...+++++.........+++++++..           ",
"             ...++++++++++++++++....            ",
"               ....+++++++++++...               ",
"                  ....++++.....                 ",
"                     ......                     ",
"                                                "};
