/* XPM */
static char * paypal_com_xpm[] = {
"48 48 3 1",
" 	c None",
".	c #000080",
"+	c #1E90FF",
"                                                ",
"                 ............                   ",
"                 ................               ",
"                ..................              ",
"                ...................             ",
"                ...................             ",
"                ....................            ",
"                ....................            ",
"                ....................            ",
"               .....................+           ",
"               .....................++          ",
"               ....................+++          ",
"               ....................++++         ",
"               ...................+++++         ",
"               ...................+++++         ",
"               ..................++++++         ",
"              .................+++++++          ",
"              ...............+++++++++          ",
"              .......++++++++++++++++           ",
"              ......+++++++++++++++++           ",
"              ......++++++++++++++++            ",
"              ......+++++++++++++++             ",
"             .......++++++++++++++              ",
"             .......++++++++                    ",
"             ......++++++++                     ",
"             ......+++++++                      ",
"             ......+++++++                      ",
"             ......+++++++                      ",
"                   +++++++                      ",
"                   ++++++                       ",
"                   ++++++                       ",
"                   ++++++                       ",
"                                                ",
"                                                ",
"                                                ",
"   ....                       ++++              ",
"  ......                     ++++++           ++",
"  ..  ...                    ++  +++          ++",
" ..    ..  ... ..           ++    ++  +++ ++ ++ ",
" ..   ..  ....... ..    ..  ++   ++  +++++++ ++ ",
" ....... ...  ...  ..   ..  +++++++ +++  +++ ++ ",
" ......  ..    ..  ..  ..   ++++++  ++    ++ ++ ",
" ..      ..    .   .....    ++      ++    +  ++ ",
"...      ..   ..    ...    +++      ++   ++  ++ ",
"..       .......    ...    ++       +++++++ ++  ",
"          ... ..    ..               +++ ++ ++  ",
"                   ..                           ",
"                  ...                           "};
