/* XPM */
static char * face8_xpm[] = {
"48 48 2 1",
" 	c #000000",
".	c #FFFFFF",
"                                                ",
"                                                ",
"                                                ",
"                                                ",
"                                                ",
"             ..............     ......          ",
"           .................     .....          ",
"         ...................      .....         ",
"       ......................     .....         ",
"      .......................      .....        ",
"     ........................      .....        ",
"    ..........................      ....        ",
"    ..........................      .....       ",
"   ............................     .....       ",
"   ....................   .....      .....      ",
"  ....................     .....     .....      ",
"  ...................       ....     ......     ",
"  ...................       .....     .....     ",
"  ...................       .....     .....     ",
"  ...................       .....      .....    ",
"  ....................     .......     .....    ",
"  .....................   ........      .....   ",
"  .................................     ......  ",
"   ................................      .....  ",
"   .............................      .....     ",
"    ............................     ......     ",
"    ............................     ......     ",
"     ...........................     ......     ",
"      ..........................     ......     ",
"       .........................     ......     ",
"        .......................     ......      ",
"         .....................      .....       ",
"            .................    .......        ",
"             .............      .....           ",
"             .............      .....           ",
"             .............      .....           ",
"             .............      .....           ",
"             .............      .....           ",
"             .............      .....           ",
"             .............      .....           ",
"             .............      .....           ",
"             .............      .....           ",
"                                                ",
"                                                ",
"                                                ",
"                                                ",
"                                                ",
"                                                "};
