/* XPM */
static char * face6_xpm[] = {
"48 48 5 1",
" 	c None",
".	c #000000",
"+	c #6A5ACD",
"@	c #FF0000",
"#	c #FFFF00",
"                                                ",
"                                                ",
"       ...................................      ",
"       .#################################.      ",
"       .###...#...#...#...#...#.#.#...###.      ",
"       .###.#.#.#.#.#.#.###.###.#.#.#####.      ",
"       .###...#.#.#..##...#.###...#...###.      ",
"       .###.###.#.#.#.###.#.###.#.#.#####.      ",
"       .###.###...#.#.#...#...#.#.#...###.      ",
"       .#################################.      ",
"       ...................................      ",
"       .####.##.##..###...................      ",
"       .###.##.##.###.#...................      ",
"       .###.##.#.....##...................      ",
"       .#...###########..@@@@@@@@@@@@@@@@.      ",
"       ....############..@@@@@@@@@@@@@@@@.      ",
"       .#######.#.#####..@@@@@@@@@@@@@@@@.      ",
"       .########.#........................      ",
"       .####.......##########.............      ",
"       .##...#####........................      ",
"       ....#######.##..######.............      ",
"       .######.###.#....#####.............      ",
"       .###.####.#.#.#..####..@@@@@@@@@@@.      ",
"       .##.#.....#.###..###...@@@@@@@@@@@.      ",
"       .#....####..##....##.#.@@@@@@@@@@@.      ",
"       ....#######.#........#.@@@@@@@@@@@.      ",
"       ............##.###...#.............      ",
"       ............##.#####.#.###########.      ",
"       ............######.#...##.########.      ",
"       ............#####.#.##.#.#.##.####.      ",
"       .............########.#........###.      ",
"        .@@@@@@@@@@@.######....######.##.       ",
"         .@@@@@@@@@@@......#####.######.        ",
"         .@@@@@@@@@@@@@..#########.#.##.        ",
"          .@@@@@@@@@@@@..###.##.#.#.##.         ",
"          ...............##...#####.#.          ",
"          ...............#...########.          ",
"           ..............#..########.           ",
"            .............##.##.####.            ",
"             ............#.#..####.             ",
"              .@@@@@@@@..#......#.              ",
"               .@@@@@@@..#.#####.               ",
"                ..@@@@@..#####..                ",
"                  ..@@@..###..                  ",
"                    ..@..#..                    ",
"                     ......                     ",
"                       ..                       ",
"                                                "};
