/* XPM */
static char * stackoverflow_com_xpm[] = {
"48 48 9 1",
" 	c None",
".	c #7E8085",
"+	c #808185",
"@	c #818288",
"#	c #A68A6E",
"$	c #FE7A15",
"%	c #D38B28",
"&	c #FD8808",
"*	c #C09553",
"                                   $$$$         ",
"                                   $$$$         ",
"                                   $$$$         ",
"                                   $$$$         ",
"                          &        $$$$$        ",
"                         &&&       $$$$$        ",
"                        &&&&       $$$$$        ",
"                        &&&&&       $$$$        ",
"                        &&&&&&      $$$$        ",
"                          &&&&&     $$$$$       ",
"                          &&&&&     $$$$$       ",
"                           &&&&     $$$$$       ",
"                            &&&&     $$$$       ",
"                 %%         &&&&&    $$$$       ",
"                 %%%         &&&&&   $$$$       ",
"                %%%%%%       &&&&&&  $$$$$      ",
"               %%%%%%%%       &&&&&  $$$$$      ",
"                 %%%%%%%%%     &&&&&  $$$$      ",
"                   %%%%%%%%    &&&&&& $$$$      ",
"                    %%%%%%%%    &&&&& $         ",
"                       %%%%%%%%  &&             ",
"                        %%%%%%%%  &             ",
"             **          %%%%%%%%               ",
"             *****         %%%%%%%              ",
"            ************     %%%                ",
"            ***************                     ",
"             *****************                  ",
"               ****************                 ",
"                     **********                 ",
"      +++               ******* ++.             ",
"      +++  ##              **** ++.             ",
"      +++  #################    +++             ",
"      +++  ###################  ++.             ",
"      +++  ###################  ++.             ",
"      +++  ###################  ++.             ",
"      +++               ######  ++.             ",
"      +++                   ##  ++.             ",
"      +++                       ++.             ",
"      +++  +++++++++++++.+..@@  +++             ",
"      +++  +++++++++++++++++@@  ++.             ",
"      +++  ++++++++++++++++++@  ++.             ",
"      +++  ++++++++++++++++++@  +++             ",
"      +++                       ++.             ",
"      +++                       ++.             ",
"      +.+                       +..             ",
"      +...+++++++++++++++++++++....             ",
"      +..+.........................             ",
"      +++++++++++++++++++++++++++++             "};
