/* XPM */
static char * weta_org_xpm[] = {
"48 48 3 1",
" 	c #000066",
".	c #CC0000",
"+	c #CCCC33",
"                                                ",
"                                                ",
"                                                ",
"                                                ",
"                                                ",
"                                                ",
"                                                ",
"                                                ",
"                                                ",
"                                                ",
"                                                ",
"                                                ",
"                                                ",
"                                                ",
"       .......                                  ",
"      ..........                                ",
"   ..............                               ",
"  ........       ..                             ",
" .......                                        ",
".......                                         ",
" .....  ++  ++  ++ ++++++ ++++++  ++            ",
"   ..   ++  ++  ++ ++   + + ++ +  ++            ",
"        ++  ++  ++ ++  +    ++   + ++           ",
"        +++ ++  +  +++++    ++   + ++           ",
"         ++ +++ +  ++ ++    ++   ++++           ",
"         +++ ++ +  ++       ++  ++  ++          ",
"          ++  ++   ++   +   ++  +   ++      .   ",
"          ++  ++   ++++++   ++ ++   +++    .... ",
"                                         .......",
"    +  ++  + + ++   +                   ....... ",
"   + + + + +   + + + +       ..       ........  ",
"   + + + + + + + + +++         ..............   ",
"   + + + + + + + + +            ...........     ",
"    +  + + + + + +  ++            .......       ",
"                                                ",
"                                                ",
"                                                ",
"                                                ",
"                                                ",
"                                                ",
"                                                ",
"                                                ",
"                                                ",
"                                                ",
"                                                ",
"                                                ",
"                                                ",
"                                                "};
