/* XPM */
static char * ycombinator_com_xpm[] = {
"48 48 2 1",
" 	c #FF6600",
".	c #FFFFFF",
"                                                ",
"                                                ",
"                                                ",
"                                                ",
"                                                ",
"                                                ",
"                                                ",
"                                                ",
"                                                ",
"                                                ",
"                                                ",
"                                                ",
"              ....            ....              ",
"               ....          ....               ",
"                ...          ...                ",
"                ....        ....                ",
"                 ...        ...                 ",
"                 ....      ....                 ",
"                  ...      ...                  ",
"                  ....    ....                  ",
"                   ...    ...                   ",
"                   ....  ....                   ",
"                    ...  ...                    ",
"                    ........                    ",
"                     ......                     ",
"                     ......                     ",
"                      ....                      ",
"                      ....                      ",
"                      ....                      ",
"                      ....                      ",
"                      ....                      ",
"                      ....                      ",
"                      ....                      ",
"                      ....                      ",
"                      ....                      ",
"                      ....                      ",
"                      ....                      ",
"                                                ",
"                                                ",
"                                                ",
"                                                ",
"                                                ",
"                                                ",
"                                                ",
"                                                ",
"                                                ",
"                                                ",
"                                                "};
