/* XPM */
static char * face9_xpm[] = {
"48 48 4 1",
" 	c None",
".	c #212121",
"+	c #FF0000",
"@	c #FFFFFF",
"                                                ",
"                                                ",
"                                                ",
"                                                ",
"                                                ",
"                                                ",
"                                                ",
"                                                ",
"                                                ",
"                                                ",
"                                                ",
"                                                ",
"                                                ",
"                                                ",
"                      +++++++++++++++++++++++   ",
"                     +++++++++++++++++++++++++  ",
"..   ..             +++++++++++++++++++++++++++ ",
"..   ..             ++@@@@@@++++++@@+++++++++++ ",
"..   ..            +++@@@@@@++++++@@++++++++++++",
" .. ..             +++++@@++++++++@@++++++++++++",
" .. ..  ...  .. .. +++++@@++@@+@@+@@+@@++@@@@+++",
" ..... .. .  .. .. +++++@@++@@+@@+@@@@@++@@@@+++",
"  ...  .. .. .. .. +++++@@++@@+@@+@@++@++@++@@++",
"  ..   .. .. .. .. +++++@@++@@+@@+@@++@+@@++@@++",
"  ..   .. .. .. .. +++++@@++@@+@@+@@++@+@@@@@@++",
"  ..   .. .. .. .. +++++@@++@@+@@+@@++@+@@++++++",
"  ..   .. .. .. .. +++++@@++@@+@@+@@++@+@@++@@++",
"  ..   .. .. .. .. +++++@@++@@+@@+@@+@@++@+@@+++",
"  ..   ....  .....  ++++@@++@@@@@+@@@@@++@@@@++ ",
"  ..    ..    .     ++++@@+++@+@@+@@+@++++@@+++ ",
"                    +++++++++++++++++++++++++++ ",
"                     +++++++++++++++++++++++++  ",
"                         +++++++++++++++++      ",
"                                                ",
"                                                ",
"                                                ",
"                                                ",
"                                                ",
"                                                ",
"                                                ",
"                                                ",
"                                                ",
"                                                ",
"                                                ",
"                                                ",
"                                                ",
"                                                ",
"                                                "};
